<svg xmlns="http://www.w3.org/2000/svg" version="1.0" width="183.000000pt" height="155.000000pt" viewBox="0 0 183.000000 155.000000" preserveAspectRatio="xMidYMid meet">
<g transform="translate(0.000000,155.000000) scale(0.100000,-0.100000)" fill="#000000" stroke="none">
<path d="M797 1329 c-99 -23 -174 -86 -224 -186 -34 -69 -38 -85 -38 -152 0 -64 5 -86 32 -143 17 -36 50 -85 73 -108 41 -41 129 -90 162 -90 39 0 48 -11 48 -60 0 -50 18 -77 45 -66 11 4 15 20 15 60 l0 54 50 11 c141 30 242 140 270 293 12 62 1 135 -29 203 -50 114 -221 226 -221 146 0 -14 13 -27 40 -41 82 -42 131 -111 151 -214 29 -141 -90 -313 -226 -328 l-30 -3 -2 304 c-1 168 -5 310 -7 318 -6 15 -51 16 -109 2z m53 -344 l0 -285 -27 6 c-180 41 -280 243 -200 405 42 87 131 158 200 159 l27 0 0 -285z"/>
</g>
</svg>