<svg xmlns="http://www.w3.org/2000/svg" version="1.0" width="197.000000pt" height="160.000000pt" viewBox="0 0 197.000000 160.000000" preserveAspectRatio="xMidYMid meet">
<metadata>
Created by potrace 1.16, written by Peter Selinger 2001-2019
</metadata>
<g transform="translate(0.000000,160.000000) scale(0.100000,-0.100000)" fill="#000000" stroke="none">
<path d="M510 1406 c0 -2 -41 -165 -91 -362 -75 -296 -88 -359 -77 -370 7 -7 18 -10 24 -6 6 4 39 117 73 252 34 135 69 270 78 299 l16 55 17 -55 c25 -80 85 -212 125 -274 19 -30 41 -71 49 -90 19 -45 101 -132 146 -155 46 -24 142 -41 183 -33 151 29 290 191 348 408 12 44 24 88 28 98 4 11 25 -84 50 -220 50 -270 54 -286 79 -281 12 3 16 12 14 33 -8 74 -124 691 -132 699 -17 17 -40 -3 -40 -35 0 -68 -33 -245 -60 -325 -89 -261 -264 -380 -439 -299 -30 14 -52 27 -50 30 3 2 25 -1 49 -6 96 -22 221 19 283 92 69 80 87 232 38 326 -82 162 -324 192 -453 56 -33 -34 -65 -104 -74 -161 -3 -23 -10 -39 -14 -37 -15 9 -82 181 -105 270 -19 75 -27 91 -44 93 -12 2 -21 1 -21 -2z m575 -148 c75 -39 115 -107 115 -193 0 -83 -18 -134 -67 -182 -81 -81 -214 -94 -310 -30 -59 40 -83 84 -83 158 0 117 51 211 135 251 48 23 163 20 210 -4z"/>





</g>
</svg>