<svg xmlns="http://www.w3.org/2000/svg" version="1.0" width="186.000000pt" height="153.000000pt" viewBox="0 0 186.000000 153.000000" preserveAspectRatio="xMidYMid meet">
<metadata>
Created by potrace 1.16, written by Peter Selinger 2001-2019
</metadata>
<g transform="translate(0.000000,153.000000) scale(0.100000,-0.100000)" fill="#000000" stroke="none">
<path d="M767 1363 c-13 -21 -28 -49 -32 -63 -4 -14 -21 -50 -36 -81 -43 -81 -106 -283 -137 -435 -25 -127 -26 -134 -9 -151 15 -15 19 -16 32 -2 8 8 20 41 26 74 35 198 84 373 142 504 l32 74 7 -39 c4 -21 7 -64 7 -94 1 -59 30 -268 58 -413 31 -163 60 -158 109 19 19 65 38 139 44 163 6 24 21 67 34 95 13 28 46 98 72 155 l49 104 7 -39 c41 -230 66 -340 105 -454 51 -151 64 -173 89 -149 14 14 11 28 -26 140 -51 150 -89 317 -105 459 -14 122 -27 170 -45 170 -10 0 -26 -12 -36 -27 -35 -55 -144 -277 -155 -317 -6 -23 -18 -55 -26 -73 -8 -18 -26 -65 -38 -105 -13 -40 -24 -71 -25 -68 0 3 -11 70 -25 149 -14 78 -28 179 -31 224 -15 200 -17 212 -41 215 -16 2 -28 -7 -46 -35z"/>

</g>
</svg>