<svg xmlns="http://www.w3.org/2000/svg" version="1.0" width="180.000000pt" height="160.000000pt" viewBox="0 0 180.000000 160.000000" preserveAspectRatio="xMidYMid meet">

<g transform="translate(0.000000,160.000000) scale(0.100000,-0.100000)" fill="#000000" stroke="none">
<path d="M508 1332 c-40 -3 -48 -6 -48 -23 0 -18 8 -19 143 -19 439 -1 507 -6 507 -43 0 -6 -88 -97 -195 -200 -107 -104 -204 -203 -215 -221 -27 -44 -26 -97 1 -122 20 -18 40 -19 323 -19 294 0 301 0 301 20 0 19 -9 20 -295 26 -162 3 -296 6 -297 7 -2 1 -3 14 -3 29 0 21 40 66 210 232 212 209 233 237 211 280 -27 49 -57 54 -336 55 -143 1 -281 0 -307 -2z"/>


</g>
</svg>