<svg xmlns="http://www.w3.org/2000/svg" version="1.0" width="174.000000pt" height="160.000000pt" viewBox="0 0 174.000000 160.000000" preserveAspectRatio="xMidYMid meet">
<metadata>
Created by potrace 1.16, written by Peter Selinger 2001-2019
</metadata>
<g transform="translate(0.000000,160.000000) scale(0.100000,-0.100000)" fill="#000000" stroke="none">

<path d="M483 1414 c-8 -22 58 -86 130 -125 156 -83 304 -80 475 11 68 37 72 38 67 17 -43 -199 -69 -285 -123 -395 -22 -46 -88 -119 -123 -137 -67 -35 -162 -7 -218 63 -45 58 -107 193 -137 302 -14 52 -27 101 -29 108 -3 6 -14 12 -25 12 -25 0 -26 -20 -4 -104 54 -214 148 -377 245 -426 52 -27 139 -27 196 1 83 40 163 167 222 353 26 82 61 262 61 313 0 30 -32 24 -88 -14 -154 -108 -277 -136 -411 -94 -66 20 -143 66 -181 106 -27 29 -48 32 -57 9z"/>
</g>
</svg>