<svg xmlns="http://www.w3.org/2000/svg" version="1.0" width="183.000000pt" height="153.000000pt" viewBox="0 0 183.000000 153.000000" preserveAspectRatio="xMidYMid meet">
<metadata>
Created by potrace 1.16, written by Peter Selinger 2001-2019
</metadata>
<g transform="translate(0.000000,153.000000) scale(0.100000,-0.100000)" fill="#000000" stroke="none">

<path d="M497 1359 c-209 -49 -333 -298 -252 -502 30 -75 70 -126 131 -168 53 -36 87 -47 170 -55 204 -20 386 106 552 385 l20 34 30 -59 c16 -32 52 -111 80 -174 138 -319 148 -325 188 -109 30 163 94 562 94 588 0 24 -30 36 -46 19 -6 -7 -26 -105 -43 -218 -18 -113 -39 -253 -48 -313 -9 -59 -20 -104 -24 -100 -4 5 -44 90 -88 191 -108 242 -128 274 -157 254 -6 -4 -37 -54 -70 -111 -118 -207 -266 -322 -424 -329 -85 -4 -179 21 -235 64 -43 32 -87 132 -93 208 -11 148 52 265 174 322 60 28 104 31 202 14 58 -11 75 -11 85 -1 28 28 -80 72 -171 70 -20 -1 -54 -5 -75 -10z"/>

</g>
</svg>