<svg xmlns="http://www.w3.org/2000/svg" version="1.0" width="180.000000pt" height="160.000000pt" viewBox="0 0 180.000000 160.000000" preserveAspectRatio="xMidYMid meet">
<metadata>
Created by potrace 1.16, written by Peter Selinger 2001-2019
</metadata>
<g transform="translate(0.000000,160.000000) scale(0.100000,-0.100000)" fill="#000000" stroke="none">
<path d="M420 1220 c0 -22 -12 -22 423 -20 115 0 231 -2 258 -6 l49 -7 0 -68 0 -69 -260 0 c-249 0 -260 -1 -270 -20 -6 -12 -9 -71 -8 -147 3 -122 4 -128 24 -131 20 -3 22 2 28 85 3 48 5 104 3 123 l-2 35 259 3 c171 1 264 6 273 13 14 12 19 181 7 213 -5 14 -50 16 -395 16 -382 0 -389 0 -389 -20z"/>


</g>
</svg>