<svg xmlns="http://www.w3.org/2000/svg" version="1.0" width="186.000000pt" height="153.000000pt" viewBox="0 0 186.000000 153.000000" preserveAspectRatio="xMidYMid meet">
<metadata>
Created by potrace 1.16, written by Peter Selinger 2001-2019
</metadata>
<g transform="translate(0.000000,153.000000) scale(0.100000,-0.100000)" fill="#000000" stroke="none">

<path d="M617 1312 c-12 -2 -17 -11 -15 -25 3 -22 4 -22 342 -27 l338 -5 -53 -50 c-60 -56 -242 -213 -476 -408 -120 -100 -153 -133 -153 -152 0 -36 31 -38 412 -32 343 5 374 9 361 43 -4 12 -58 14 -340 13 -184 0 -336 1 -338 3 -2 2 69 64 158 138 226 189 471 405 497 437 29 38 22 56 -25 65 -41 8 -675 8 -708 0z"/>

</g>
</svg>