<svg xmlns="http://www.w3.org/2000/svg" version="1.0" width="180.000000pt" height="163.000000pt" viewBox="0 0 180.000000 163.000000" preserveAspectRatio="xMidYMid meet">
<metadata>
Created by potrace 1.16, written by Peter Selinger 2001-2019
</metadata>
<g transform="translate(0.000000,163.000000) scale(0.100000,-0.100000)" fill="#000000" stroke="none">
<path d="M794 1490 c-217 -39 -390 -149 -465 -295 l-31 -60 22 -58 c33 -87 113 -168 214 -216 105 -51 187 -70 316 -78 176 -10 318 24 442 106 40 26 88 67 106 89 39 49 68 55 79 15 3 -16 -1 -77 -9 -138 -13 -84 -14 -113 -5 -122 7 -7 18 -9 25 -4 20 12 40 127 38 217 -1 96 -18 124 -73 124 -27 0 -47 -12 -111 -72 -91 -84 -177 -128 -302 -154 -199 -40 -473 22 -594 134 -37 36 -86 121 -86 152 0 49 88 158 171 211 67 43 194 86 293 100 67 9 108 9 186 0 200 -24 316 -87 412 -222 22 -32 44 -13 34 28 -10 39 -120 143 -187 175 -128 62 -340 92 -475 68z"/>

</g>
</svg>