<svg xmlns="http://www.w3.org/2000/svg" version="1.0" width="180.000000pt" height="153.000000pt" viewBox="0 0 180.000000 153.000000" preserveAspectRatio="xMidYMid meet">
<metadata>
Created by potrace 1.16, written by Peter Selinger 2001-2019
</metadata>
<g transform="translate(0.000000,153.000000) scale(0.100000,-0.100000)" fill="#000000" stroke="none">

<path d="M447 1253 c-4 -3 -7 -89 -7 -190 l0 -184 23 3 c21 3 22 7 25 136 l3 133 22 -28 c13 -15 47 -61 77 -102 l54 -74 -20 -33 c-10 -19 -54 -81 -97 -139 -65 -87 -77 -108 -67 -120 7 -8 16 -15 21 -15 4 0 49 55 99 123 50 67 95 122 100 122 6 0 54 -58 107 -130 54 -71 105 -130 113 -130 15 0 52 45 147 178 30 43 60 76 66 74 5 -1 54 -64 107 -138 142 -197 135 -207 135 191 0 397 7 388 -137 195 -53 -71 -100 -131 -105 -132 -5 -2 -31 29 -58 68 -97 138 -146 199 -159 199 -7 0 -57 -61 -112 -135 -54 -74 -101 -135 -104 -135 -3 1 -50 61 -105 135 -93 127 -112 145 -128 128z m541 -187 c45 -63 82 -121 82 -130 0 -18 -157 -236 -170 -236 -7 0 -126 155 -163 213 -18 27 -18 30 -1 55 42 64 155 212 162 212 4 0 44 -52 90 -114z m320 -142 c-1 -112 -5 -204 -8 -204 -6 1 -143 195 -148 210 -5 14 140 210 150 204 4 -3 7 -97 6 -210z"/>

</g>
</svg>