<svg xmlns="http://www.w3.org/2000/svg" version="1.0" width="182.000000pt" height="153.000000pt" viewBox="0 0 182.000000 153.000000" preserveAspectRatio="xMidYMid meet">
<metadata>
Created by potrace 1.16, written by Peter Selinger 2001-2019
</metadata>
<g transform="translate(0.000000,153.000000) scale(0.100000,-0.100000)" fill="#000000" stroke="none">
<path d="M855 1374 c-16 -3 -63 -12 -102 -20 -59 -13 -73 -20 -73 -34 0 -28 10 -30 85 -13 85 19 315 22 399 5 32 -7 74 -23 92 -37 65 -50 98 -209 82 -399 -11 -130 -33 -180 -90 -206 -124 -54 -500 -51 -607 5 -101 53 -141 231 -106 475 13 93 14 125 5 134 -8 8 -15 6 -25 -8 -26 -35 -40 -130 -40 -271 0 -119 4 -151 24 -215 41 -130 85 -166 243 -195 117 -22 348 -22 447 -1 133 28 174 76 197 232 22 150 5 336 -39 420 -24 46 -89 94 -150 110 -52 15 -285 27 -342 18z"/>


</g>
</svg>