<svg xmlns="http://www.w3.org/2000/svg" version="1.0" width="188.000000pt" height="153.000000pt" viewBox="0 0 188.000000 153.000000" preserveAspectRatio="xMidYMid meet">
<metadata>
Created by potrace 1.16, written by Peter Selinger 2001-2019
</metadata>
<g transform="translate(0.000000,153.000000) scale(0.100000,-0.100000)" fill="#000000" stroke="none">

<path d="M1135 1410 c-4 -6 -4 -26 -1 -43 8 -42 1 -50 -64 -78 -122 -51 -251 -144 -271 -196 -18 -44 -22 -297 -7 -383 12 -67 16 -75 37 -78 22 -4 23 -2 17 40 -3 23 -9 95 -12 158 -8 143 6 243 38 278 37 40 149 109 229 140 63 26 74 34 81 60 16 61 -22 143 -47 102z"/>


</g>
</svg>