<svg xmlns="http://www.w3.org/2000/svg" version="1.0" width="180.000000pt" height="153.000000pt" viewBox="0 0 180.000000 153.000000" preserveAspectRatio="xMidYMid meet">
<metadata>
Created by potrace 1.16, written by Peter Selinger 2001-2019
</metadata>
<g transform="translate(0.000000,153.000000) scale(0.100000,-0.100000)" fill="#000000" stroke="none">
<path d="M606 1289 c-154 -13 -209 -48 -242 -152 -15 -50 -15 -57 0 -110 18 -63 61 -106 125 -125 104 -32 410 -40 597 -16 l51 6 5 -83 c3 -61 11 -98 29 -134 36 -74 118 -121 127 -73 2 10 -8 23 -26 32 -43 22 -71 88 -78 182 l-7 79 129 25 c107 21 130 28 132 44 2 10 -1 22 -7 26 -7 3 -63 -3 -126 -15 -63 -12 -115 -22 -115 -21 0 1 -2 39 -4 86 -4 123 -35 184 -112 223 -27 14 -301 40 -369 36 -11 -1 -60 -5 -109 -10z m381 -60 c96 -13 108 -19 134 -71 16 -30 21 -61 22 -120 0 -43 -4 -83 -9 -88 -5 -4 -72 -14 -149 -20 -203 -17 -447 0 -517 36 -80 41 -76 198 6 241 17 9 49 20 71 24 65 11 357 10 442 -2z"/>



</g>
</svg>