<svg xmlns="http://www.w3.org/2000/svg" version="1.0" width="197.000000pt" height="157.000000pt" viewBox="0 0 197.000000 157.000000" preserveAspectRatio="xMidYMid meet">
<metadata>
Created by potrace 1.16, written by Peter Selinger 2001-2019
</metadata>
<g transform="translate(0.000000,157.000000) scale(0.100000,-0.100000)" fill="#000000" stroke="none">

<path d="M473 1243 c-20 -7 -16 -92 8 -169 28 -92 90 -194 154 -253 112 -101 317 -141 500 -96 67 17 163 74 211 128 83 91 150 253 142 345 -3 32 -6 37 -27 37 -23 0 -26 -6 -37 -70 -39 -230 -165 -363 -371 -395 -148 -23 -300 21 -396 115 -69 69 -112 167 -142 326 -5 28 -21 39 -42 32z"/>



</g>
</svg>