<svg xmlns="http://www.w3.org/2000/svg" version="1.0" width="183.000000pt" height="153.000000pt" viewBox="0 0 183.000000 153.000000" preserveAspectRatio="xMidYMid meet">
<metadata>
Created by potrace 1.16, written by Peter Selinger 2001-2019
</metadata>
<g transform="translate(0.000000,153.000000) scale(0.100000,-0.100000)" fill="#000000" stroke="none">
<path d="M630 1323 c-61 -22 -142 -104 -164 -168 -65 -187 3 -387 156 -456 52 -23 60 -24 376 -27 l322 -3 0 25 0 26 -297 0 c-250 0 -305 3 -350 17 -71 22 -116 62 -150 131 -51 106 -32 273 40 350 74 80 206 85 273 10 45 -49 64 -106 73 -218 5 -66 8 -75 26 -75 18 0 20 6 19 80 -1 119 -24 185 -87 250 -43 44 -61 55 -105 64 -66 14 -76 13 -132 -6z"/>



</g>
</svg>