<svg xmlns="http://www.w3.org/2000/svg" version="1.0" width="186.000000pt" height="160.000000pt" viewBox="0 0 186.000000 160.000000" preserveAspectRatio="xMidYMid meet">
<metadata>
Created by potrace 1.16, written by Peter Selinger 2001-2019
</metadata>
<g transform="translate(0.000000,160.000000) scale(0.100000,-0.100000)" fill="#000000" stroke="none">

<path d="M848 1419 c-68 -38 -162 -120 -203 -178 -27 -40 -27 -43 -11 -59 16 -16 20 -14 63 36 62 72 170 162 194 162 17 0 19 -7 19 -77 0 -166 42 -458 80 -558 11 -29 30 -31 91 -10 83 29 179 96 230 159 52 65 59 83 32 93 -11 4 -33 -13 -77 -60 -59 -64 -170 -137 -209 -137 -20 0 -40 63 -62 195 -15 91 -33 333 -31 415 1 43 0 45 -29 47 -19 2 -52 -9 -87 -28z"/>


</g>
</svg>