<svg xmlns="http://www.w3.org/2000/svg" version="1.0" width="180.000000pt" height="153.000000pt" viewBox="0 0 180.000000 153.000000" preserveAspectRatio="xMidYMid meet">
<metadata>
Created by potrace 1.16, written by Peter Selinger 2001-2019
</metadata>
<g transform="translate(0.000000,153.000000) scale(0.100000,-0.100000)" fill="#000000" stroke="none">
<path d="M706 1319 c-167 -18 -324 -75 -436 -159 -67 -50 -78 -67 -57 -87 14 -14 20 -12 55 18 166 142 453 211 674 164 139 -29 281 -125 317 -213 12 -29 11 -36 -15 -79 -60 -103 -162 -177 -285 -209 -165 -43 -431 30 -510 138 -33 46 -29 60 23 100 51 39 93 57 176 79 102 26 200 26 276 0 59 -21 126 -64 126 -81 0 -5 -30 -24 -67 -42 -62 -30 -75 -33 -163 -33 -82 0 -95 -2 -98 -18 -9 -46 173 -49 270 -5 65 30 118 74 118 97 0 26 -69 87 -130 115 -171 78 -429 34 -568 -98 -54 -50 -57 -61 -28 -110 65 -111 210 -183 412 -204 159 -17 316 39 420 151 33 34 72 88 88 118 l29 55 -28 53 c-96 176 -339 278 -599 250z"/>


</g>
</svg>