<svg xmlns="http://www.w3.org/2000/svg" version="1.0" width="180.000000pt" height="153.000000pt" viewBox="0 0 180.000000 153.000000" preserveAspectRatio="xMidYMid meet">
<metadata>
Created by potrace 1.16, written by Peter Selinger 2001-2019
</metadata>
<g transform="translate(0.000000,153.000000) scale(0.100000,-0.100000)" fill="#000000" stroke="none">

<path d="M708 1364 c-13 -12 -10 -702 2 -709 6 -4 18 -1 27 6 14 12 15 44 13 249 -2 129 -3 275 -2 324 l2 89 50 -6 c76 -9 165 -53 209 -104 47 -53 66 -115 66 -213 -1 -61 -6 -84 -27 -126 -29 -55 -90 -114 -150 -145 -39 -20 -49 -45 -24 -55 19 -7 62 16 129 71 80 65 121 151 121 255 0 174 -72 284 -219 339 -59 22 -185 38 -197 25z"/>

</g>
</svg>