<svg xmlns="http://www.w3.org/2000/svg" version="1.0" width="197.000000pt" height="153.000000pt" viewBox="0 0 197.000000 153.000000" preserveAspectRatio="xMidYMid meet">

<g transform="translate(0.000000,153.000000) scale(0.100000,-0.100000)" fill="#000000" stroke="none">

<path d="M610 1346 c0 -39 102 -100 400 -242 91 -43 177 -85 192 -94 l28 -17 -263 -132 c-262 -133 -318 -170 -297 -196 8 -10 20 -11 41 -5 26 8 553 273 601 303 23 15 23 39 1 59 -33 30 -652 338 -677 338 -16 0 -26 -6 -26 -14z"/>



</g>
</svg>