<svg xmlns="http://www.w3.org/2000/svg" version="1.0" width="183.000000pt" height="153.000000pt" viewBox="0 0 183.000000 153.000000" preserveAspectRatio="xMidYMid meet">

<g transform="translate(0.000000,153.000000) scale(0.100000,-0.100000)" fill="#000000" stroke="none">
<path d="M947 1377 c-8 -21 10 -33 56 -40 96 -15 190 -89 236 -187 37 -79 37 -192 0 -271 -36 -76 -90 -133 -157 -166 -50 -24 -69 -28 -147 -28 -73 0 -100 5 -140 23 -143 66 -225 244 -181 394 32 110 111 193 218 228 67 21 79 50 21 50 -53 -1 -114 -31 -172 -85 -133 -124 -165 -295 -85 -455 56 -110 142 -177 262 -200 220 -44 412 90 454 317 36 195 -116 407 -309 429 -40 5 -51 3 -56 -9z"/>


</g>
</svg>