<svg xmlns="http://www.w3.org/2000/svg" version="1.0" width="180.000000pt" height="157.000000pt" viewBox="0 0 180.000000 157.000000" preserveAspectRatio="xMidYMid meet">
<metadata>
Created by potrace 1.16, written by Peter Selinger 2001-2019
</metadata>
<g transform="translate(0.000000,157.000000) scale(0.100000,-0.100000)" fill="#000000" stroke="none">

<path d="M801 1436 c-6 -8 -13 -43 -14 -79 -2 -53 2 -71 19 -94 28 -38 80 -61 166 -73 40 -6 77 -15 82 -20 12 -12 -45 -46 -109 -66 -27 -8 -129 -26 -225 -40 -181 -27 -236 -42 -246 -69 -20 -51 64 -70 426 -100 102 -8 211 -22 242 -30 68 -18 157 -56 143 -61 -5 -1 -115 -8 -242 -14 -128 -6 -333 -19 -454 -29 -221 -19 -245 -25 -232 -58 6 -15 35 -16 158 -3 161 16 406 32 606 38 174 6 199 9 218 26 28 25 26 42 -7 75 -59 60 -197 93 -475 116 -202 17 -280 26 -274 32 2 2 69 13 148 24 172 24 246 42 310 75 52 26 69 48 69 87 0 35 -34 53 -134 70 -126 22 -134 30 -138 124 -3 77 -14 97 -37 69z"/>


</g>
</svg>