<svg xmlns="http://www.w3.org/2000/svg" version="1.0" width="180.000000pt" height="153.000000pt" viewBox="0 0 180.000000 153.000000" preserveAspectRatio="xMidYMid meet">
<metadata>
Created by potrace 1.16, written by Peter Selinger 2001-2019
</metadata>
<g transform="translate(0.000000,153.000000) scale(0.100000,-0.100000)" fill="#000000" stroke="none">
<path d="M414 1315 c-13 -33 3 -418 20 -480 43 -157 127 -167 259 -29 l73 75 70 9 c39 5 108 9 155 9 99 0 285 25 351 47 59 19 77 39 56 60 -14 14 -19 14 -45 1 -59 -31 -186 -50 -378 -56 -218 -7 -227 -10 -308 -97 -53 -58 -104 -94 -130 -94 -20 0 -42 41 -58 106 -7 27 -15 141 -18 254 -5 184 -8 205 -24 208 -9 2 -20 -4 -23 -13z"/>

</g>
</svg>