<svg xmlns="http://www.w3.org/2000/svg" version="1.0" width="188.000000pt" height="163.000000pt" viewBox="0 0 188.000000 163.000000" preserveAspectRatio="xMidYMid meet">
<metadata>
Created by potrace 1.16, written by Peter Selinger 2001-2019
</metadata>
<g transform="translate(0.000000,163.000000) scale(0.100000,-0.100000)" fill="#000000" stroke="none">

<path d="M797 1456 c-119 -40 -176 -123 -185 -268 -8 -142 36 -246 124 -289 42 -20 64 -24 149 -24 88 0 105 3 144 25 60 34 91 93 91 172 0 46 -4 62 -21 79 -19 19 -22 20 -37 5 -13 -12 -13 -18 -4 -28 17 -17 15 -94 -4 -134 -26 -54 -86 -77 -188 -72 -105 5 -142 25 -176 93 -47 96 -35 262 25 333 13 16 48 40 77 53 68 30 221 33 312 6 75 -23 143 -89 171 -167 29 -80 27 -234 -3 -311 -43 -109 -121 -169 -240 -185 -47 -6 -53 -9 -50 -28 3 -19 9 -21 62 -19 144 5 257 108 295 268 46 196 -22 395 -160 465 -106 55 -267 66 -382 26z"/>

</g>
</svg>