<svg xmlns="http://www.w3.org/2000/svg" version="1.0" width="186.000000pt" height="155.000000pt" viewBox="0 0 186.000000 155.000000" preserveAspectRatio="xMidYMid meet">

<g transform="translate(0.000000,155.000000) scale(0.100000,-0.100000)" fill="#000000" stroke="none">


<path d="M653 1341 c-125 -6 -148 -14 -141 -47 5 -29 59 -35 234 -28 89 3 218 2 288 -2 l126 -7 0 -331 c0 -245 3 -335 12 -344 17 -17 44 -15 63 4 13 14 15 48 14 258 -1 132 -4 301 -7 374 l-4 132 -232 -2 c-127 -1 -286 -4 -353 -7z"/>


</g>
</svg>