<svg xmlns="http://www.w3.org/2000/svg" version="1.0" width="180.000000pt" height="153.000000pt" viewBox="0 0 180.000000 153.000000" preserveAspectRatio="xMidYMid meet">
<metadata>
Created by potrace 1.16, written by Peter Selinger 2001-2019
</metadata>
<g transform="translate(0.000000,153.000000) scale(0.100000,-0.100000)" fill="#000000" stroke="none">
<path d="M1323 1215 c-26 -42 -79 -127 -118 -190 l-70 -115 -177 0 -178 0 0 54 c0 39 -6 60 -21 80 -40 51 -63 56 -253 56 -170 0 -176 -1 -203 -24 -28 -24 -28 -26 -31 -153 -3 -107 -1 -132 12 -142 8 -7 19 -10 24 -7 5 3 11 62 14 132 4 93 9 128 19 135 8 5 89 8 181 7 201 -4 202 -4 199 -98 -1 -36 3 -68 10 -76 9 -11 52 -14 220 -14 l208 0 29 43 c77 113 212 346 212 365 0 42 -29 21 -77 -53z"/>

</g>
</svg>