<svg xmlns="http://www.w3.org/2000/svg" version="1.0" width="180.000000pt" height="153.000000pt" viewBox="0 0 180.000000 153.000000" preserveAspectRatio="xMidYMid meet">
<metadata>
Created by potrace 1.16, written by Peter Selinger 2001-2019
</metadata>
<g transform="translate(0.000000,153.000000) scale(0.100000,-0.100000)" fill="#000000" stroke="none">

<path d="M335 1260 c-10 -16 14 -153 40 -230 51 -150 168 -275 302 -321 71 -24 254 -27 329 -4 88 26 195 109 248 193 31 49 92 230 101 298 5 38 3 53 -8 63 -12 9 -77 11 -257 9 -227 -3 -242 -4 -256 -23 -11 -15 -14 -49 -12 -154 3 -136 13 -168 36 -116 7 14 12 68 12 119 0 75 3 96 17 107 23 20 402 22 410 2 9 -23 -28 -153 -64 -224 -38 -76 -124 -163 -194 -196 -140 -66 -340 -49 -452 39 -61 48 -82 74 -126 158 -37 71 -52 122 -69 235 -6 41 -11 51 -29 53 -12 2 -24 -2 -28 -8z"/>
</g>
</svg>