<svg xmlns="http://www.w3.org/2000/svg" version="1.0" width="197.000000pt" height="153.000000pt" viewBox="0 0 197.000000 153.000000" preserveAspectRatio="xMidYMid meet">
<metadata>
Created by potrace 1.16, written by Peter Selinger 2001-2019
</metadata>
<g transform="translate(0.000000,153.000000) scale(0.100000,-0.100000)" fill="#000000" stroke="none">

<path d="M624 1347 c-2 -7 7 -66 20 -132 13 -66 29 -165 36 -220 27 -239 42 -295 92 -329 63 -44 118 -2 162 121 32 94 50 123 75 123 48 0 113 -89 141 -194 13 -47 22 -62 37 -64 31 -5 34 21 13 90 -43 136 -119 222 -198 222 -47 0 -80 -41 -117 -145 -15 -44 -36 -90 -45 -102 -18 -22 -18 -22 -39 -3 -25 23 -47 96 -55 181 -15 151 -30 245 -62 393 -13 59 -19 72 -35 72 -11 0 -22 -6 -25 -13z"/>
</g>
</svg>