<svg xmlns="http://www.w3.org/2000/svg" version="1.0" width="186.000000pt" height="153.000000pt" viewBox="0 0 186.000000 153.000000" preserveAspectRatio="xMidYMid meet">

<g transform="translate(0.000000,153.000000) scale(0.100000,-0.100000)" fill="#000000" stroke="none">

<path d="M597 1363 c-23 -23 -1 -54 100 -144 59 -52 134 -119 167 -150 l59 -56 -177 -152 c-98 -84 -180 -160 -183 -168 -3 -8 0 -20 6 -26 18 -18 62 12 236 163 88 77 163 140 166 140 6 0 173 -145 278 -242 51 -48 81 -68 95 -66 21 3 21 5 21 353 0 313 -2 350 -16 353 -19 3 -107 -67 -237 -190 -51 -49 -104 -95 -117 -104 -29 -19 -29 -20 -184 125 -189 176 -197 182 -214 164z m720 -353 l2 -260 -82 68 c-45 37 -113 97 -152 134 l-70 67 50 43 c27 24 92 80 144 126 52 45 97 82 100 82 3 0 7 -117 8 -260z"/>
</g>
</svg>