<svg xmlns="http://www.w3.org/2000/svg" version="1.0" width="174.000000pt" height="160.000000pt" viewBox="0 0 174.000000 160.000000" preserveAspectRatio="xMidYMid meet">

<g transform="translate(0.000000,160.000000) scale(0.100000,-0.100000)" fill="#000000" stroke="none">
<path d="M939 1331 c-102 -66 -159 -156 -228 -361 -31 -91 -61 -164 -66 -163 -6 1 -36 39 -67 85 -65 94 -99 125 -145 134 -62 12 -97 -21 -72 -68 23 -43 281 -308 300 -308 33 0 57 39 69 114 18 113 39 185 76 264 44 96 117 198 156 218 50 26 73 13 100 -57 27 -72 58 -99 120 -106 56 -6 121 24 143 67 41 79 39 180 -4 180 -21 0 -31 -18 -31 -58 0 -48 -12 -72 -41 -87 -61 -32 -91 -15 -138 78 -52 102 -93 119 -172 68z"/>








</g>
</svg>