<svg xmlns="http://www.w3.org/2000/svg" version="1.0" width="188.000000pt" height="153.000000pt" viewBox="0 0 188.000000 153.000000" preserveAspectRatio="xMidYMid meet">
<metadata>
Created by potrace 1.16, written by Peter Selinger 2001-2019
</metadata>
<g transform="translate(0.000000,153.000000) scale(0.100000,-0.100000)" fill="#000000" stroke="none">

<path d="M655 1262 c-68 -23 -107 -53 -144 -108 -78 -118 -57 -283 47 -375 106 -93 273 -104 448 -29 87 37 130 59 159 83 6 4 26 18 45 31 l35 23 60 -52 c73 -63 179 -135 199 -135 19 0 28 14 21 32 -3 7 -38 34 -78 60 -40 26 -91 67 -115 91 l-43 43 61 53 c34 29 88 85 121 123 54 62 59 72 46 85 -13 14 -29 1 -136 -106 -67 -67 -126 -119 -131 -116 -6 4 -36 42 -66 86 -62 88 -116 139 -186 175 -106 54 -248 69 -343 36z m268 -60 c76 -27 139 -74 189 -141 23 -31 55 -73 71 -95 16 -21 25 -41 20 -45 -5 -3 -30 -21 -56 -39 -121 -85 -281 -138 -384 -129 -159 15 -245 99 -246 243 -1 106 57 188 157 220 55 18 177 11 249 -14z"/>

</g>
</svg>