<svg xmlns="http://www.w3.org/2000/svg" version="1.0" width="180.000000pt" height="163.000000pt" viewBox="0 0 180.000000 163.000000" preserveAspectRatio="xMidYMid meet">
<metadata>
Created by potrace 1.16, written by Peter Selinger 2001-2019
</metadata>
<g transform="translate(0.000000,163.000000) scale(0.100000,-0.100000)" fill="#000000" stroke="none">
<path d="M1357 1258 l-77 -133 -188 -3 c-201 -4 -212 -7 -212 -58 0 -12 -6 -27 -14 -33 -20 -16 -42 8 -51 56 -12 68 -70 106 -128 84 -46 -18 -61 -54 -67 -171 -8 -128 -26 -169 -80 -184 -41 -11 -53 -25 -38 -43 28 -35 111 7 142 72 14 27 21 67 23 125 2 47 6 95 9 107 4 23 30 53 45 53 20 0 49 -42 49 -71 0 -20 10 -40 29 -60 48 -48 97 -35 126 35 l15 36 143 1 c78 0 162 4 186 7 l45 7 78 135 c81 140 91 170 60 170 -13 0 -41 -39 -95 -132z"/>


</g>
</svg>