<svg xmlns="http://www.w3.org/2000/svg" version="1.0" width="180.000000pt" height="163.000000pt" viewBox="0 0 180.000000 163.000000" preserveAspectRatio="xMidYMid meet">
<metadata>
Created by potrace 1.16, written by Peter Selinger 2001-2019
</metadata>
<g transform="translate(0.000000,163.000000) scale(0.100000,-0.100000)" fill="#000000" stroke="none">
<path d="M1227 1448 c-148 -233 -227 -360 -227 -366 0 -5 20 -22 44 -39 61 -43 80 -75 78 -133 -2 -112 -88 -183 -218 -183 -192 1 -277 173 -148 302 24 24 44 49 44 55 0 6 -70 97 -156 201 -111 134 -162 190 -177 190 -11 0 -22 -5 -24 -11 -2 -5 34 -55 79 -110 46 -54 113 -137 150 -183 l68 -84 -24 -22 c-67 -62 -89 -183 -48 -261 46 -90 126 -128 254 -123 112 5 170 34 214 107 60 99 54 181 -18 256 -27 28 -47 55 -44 62 2 6 53 87 112 180 59 93 108 178 108 189 2 41 -33 28 -67 -27z"/>



</g>
</svg>