<svg xmlns="http://www.w3.org/2000/svg" version="1.0" width="180.000000pt" height="160.000000pt" viewBox="0 0 180.000000 160.000000" preserveAspectRatio="xMidYMid meet">
<g transform="translate(0.000000,160.000000) scale(0.100000,-0.100000)" fill="#000000" stroke="none">
<path d="M336 1370 c-77 -23 -134 -132 -123 -231 11 -93 51 -154 199 -301 75 -76 141 -138 147 -138 15 0 161 166 161 184 0 34 -39 14 -99 -50 l-61 -66 -96 88 c-113 104 -146 144 -180 219 -58 126 0 250 116 250 58 0 95 -29 110 -86 6 -21 15 -41 21 -44 15 -10 36 12 43 46 18 91 162 114 220 36 19 -26 21 -46 26 -220 5 -189 5 -193 33 -240 71 -121 251 -160 403 -88 76 36 129 90 167 171 29 60 31 73 32 175 0 95 -3 116 -22 151 -52 98 -181 159 -280 135 -62 -16 -126 -54 -152 -90 -32 -45 -51 -129 -40 -184 19 -106 82 -165 190 -181 54 -8 79 0 79 24 0 21 -19 30 -66 30 -86 0 -154 72 -154 164 0 80 31 131 104 168 56 29 149 22 205 -15 64 -43 86 -94 86 -202 0 -75 -5 -99 -26 -145 -37 -79 -75 -119 -142 -151 -73 -34 -137 -43 -202 -29 -70 15 -119 50 -145 104 -19 41 -22 63 -23 223 -2 160 -4 182 -23 213 -55 94 -188 116 -273 44 l-29 -24 -28 25 c-43 40 -114 54 -178 35z"/>
</g>
</svg>