<svg xmlns="http://www.w3.org/2000/svg" version="1.0" width="180.000000pt" height="160.000000pt" viewBox="0 0 180.000000 160.000000" preserveAspectRatio="xMidYMid meet">

<g transform="translate(0.000000,160.000000) scale(0.100000,-0.100000)" fill="#000000" stroke="none">
<path d="M896 1429 c-35 -27 -56 -69 -66 -132 -10 -67 8 -128 57 -191 41 -53 39 -57 -32 -77 -46 -13 -113 -6 -156 16 -82 43 -166 150 -215 276 -30 77 -43 92 -64 79 -13 -8 -15 -65 -18 -362 -2 -194 0 -363 3 -376 4 -17 12 -22 28 -20 l22 3 3 289 2 289 39 -59 c49 -76 112 -135 179 -169 78 -41 175 -41 253 -1 47 23 60 26 78 16 42 -22 176 -62 216 -63 34 -2 40 1 43 19 3 19 -6 23 -65 38 -37 10 -92 28 -120 41 l-53 24 27 52 c54 103 40 246 -28 304 -39 32 -95 34 -133 4z m107 -58 c29 -35 41 -88 32 -145 -8 -48 -43 -116 -61 -116 -20 0 -81 76 -89 110 -11 49 3 117 31 150 32 38 56 38 87 1z"/>


</g>
</svg>