<svg xmlns="http://www.w3.org/2000/svg" version="1.0" width="183.000000pt" height="157.000000pt" viewBox="0 0 183.000000 157.000000" preserveAspectRatio="xMidYMid meet">
<metadata>
Created by potrace 1.16, written by Peter Selinger 2001-2019
</metadata>
<g transform="translate(0.000000,157.000000) scale(0.100000,-0.100000)" fill="#000000" stroke="none">

<path d="M567 1403 c-18 -17 2 -47 111 -164 64 -69 137 -149 161 -177 l43 -52 -48 -57 c-27 -32 -94 -105 -150 -163 -112 -117 -129 -141 -112 -158 7 -7 15 -12 19 -12 7 0 124 120 244 250 43 47 81 86 85 88 4 1 76 -76 160 -173 131 -150 157 -175 182 -175 15 0 28 3 28 8 0 14 -32 56 -109 141 -125 139 -211 240 -211 248 0 10 85 108 217 250 68 73 103 118 101 130 -3 17 -26 18 -359 21 -195 1 -358 -1 -362 -5z m623 -49 c0 -8 -179 -211 -230 -259 l-41 -40 -37 41 c-20 22 -79 87 -131 144 -77 85 -91 105 -76 110 22 8 515 12 515 4z"/>


</g>
</svg>