<svg xmlns="http://www.w3.org/2000/svg" version="1.0" width="180.000000pt" height="160.000000pt" viewBox="0 0 180.000000 160.000000" preserveAspectRatio="xMidYMid meet">
<metadata>
Created by potrace 1.16, written by Peter Selinger 2001-2019
</metadata>
<g transform="translate(0.000000,160.000000) scale(0.100000,-0.100000)" fill="#000000" stroke="none">

<path d="M510 1331 c-44 -14 -104 -48 -126 -73 -43 -47 -56 -87 -52 -158 3 -60 8 -73 40 -115 l37 -47 -72 -80 c-85 -93 -102 -120 -94 -142 12 -31 13 -31 169 138 l45 50 51 -22 c131 -57 347 -82 480 -56 l76 14 56 -29 c54 -29 118 -47 215 -61 62 -9 75 -4 75 26 0 26 2 25 -110 42 -36 5 -87 20 -114 31 l-50 22 38 36 c124 121 108 303 -32 365 -24 11 -76 22 -115 25 -60 4 -85 1 -149 -21 l-77 -25 -57 34 c-87 52 -163 67 -234 46z m187 -86 c24 -14 43 -27 43 -29 0 -2 -24 -21 -52 -42 -29 -20 -92 -71 -140 -112 -54 -46 -93 -72 -102 -69 -23 9 -56 82 -56 122 0 132 175 207 307 130z m421 -32 c77 -39 99 -126 53 -208 -21 -38 -75 -85 -97 -85 -19 0 -92 85 -157 182 -65 96 -66 98 -44 110 60 32 182 32 245 1z m-290 -90 c16 -21 46 -65 67 -98 21 -33 53 -77 73 -97 35 -37 35 -37 11 -42 -72 -15 -163 -16 -255 -2 -96 14 -214 50 -214 64 1 22 247 209 277 211 6 1 25 -16 41 -36z"/>
</g>
</svg>