<?xml version="1.0" standalone="no"?>
<!DOCTYPE svg PUBLIC "-//W3C//DTD SVG 20010904//EN"
 "http://www.w3.org/TR/2001/REC-SVG-20010904/DTD/svg10.dtd">
<svg version="1.0" xmlns="http://www.w3.org/2000/svg"
 width="180.000000pt" height="153.000000pt" viewBox="0 0 180.000000 153.000000"
 preserveAspectRatio="xMidYMid meet">
<metadata>
Created by potrace 1.16, written by Peter Selinger 2001-2019
</metadata>
<g transform="translate(0.000000,153.000000) scale(0.100000,-0.100000)"
fill="#000000" stroke="none">
<path d="M825 1406 c-9 -13 -60 -122 -114 -242 -55 -121 -126 -278 -158 -349
-33 -72 -58 -136 -55 -143 2 -6 11 -12 21 -12 19 0 68 99 232 463 51 114 96
204 100 200 4 -5 24 -51 44 -103 20 -52 40 -104 45 -115 4 -11 20 -54 36 -95
15 -41 38 -102 51 -134 13 -33 22 -61 20 -62 -1 -2 -21 3 -42 11 -49 17 -121
19 -166 3 -54 -18 -119 -67 -119 -89 0 -29 28 -35 53 -11 57 54 166 68 239 31
22 -11 57 -38 78 -60 81 -85 79 -39 -6 184 -37 94 -82 210 -99 257 -114 298
-126 318 -160 266z"/>
</g>
</svg>
