<svg xmlns="http://www.w3.org/2000/svg" version="1.0" width="180.000000pt" height="160.000000pt" viewBox="0 0 180.000000 160.000000" preserveAspectRatio="xMidYMid meet">

<g transform="translate(0.000000,160.000000) scale(0.100000,-0.100000)" fill="#000000" stroke="none">
<path d="M730 1413 c-48 -16 -287 -164 -358 -221 -72 -57 -92 -124 -51 -176 31 -40 60 -51 229 -86 85 -18 156 -33 158 -35 2 -2 -59 -17 -135 -35 -213 -49 -238 -58 -266 -86 -47 -46 -27 -106 41 -123 20 -5 269 -12 553 -15 537 -7 553 -5 529 33 -7 12 -99 15 -522 18 -522 4 -572 8 -566 42 4 21 67 40 308 95 l195 44 210 -42 c116 -23 216 -41 223 -38 18 6 14 40 -5 45 -10 3 -80 18 -156 33 -76 15 -132 31 -125 35 7 3 76 21 153 39 202 47 245 74 245 152 0 28 -8 47 -32 74 -49 55 -292 215 -368 241 -78 27 -193 30 -260 6z m237 -51 c60 -19 282 -159 341 -215 51 -49 40 -95 -30 -121 -24 -9 -131 -36 -239 -60 l-196 -44 -213 44 c-117 24 -227 52 -244 62 -50 29 -47 61 13 115 61 54 278 194 341 218 59 23 153 24 227 1z"/>


</g>
</svg>