<svg xmlns="http://www.w3.org/2000/svg" version="1.0" width="183.000000pt" height="163.000000pt" viewBox="0 0 183.000000 163.000000" preserveAspectRatio="xMidYMid meet">
<metadata>
Created by potrace 1.16, written by Peter Selinger 2001-2019
</metadata>
<g transform="translate(0.000000,163.000000) scale(0.100000,-0.100000)" fill="#000000" stroke="none">
<path d="M585 1490 c-48 -19 -87 -89 -65 -115 19 -23 30 -18 45 20 18 40 47 59 81 51 54 -14 49 -88 -11 -204 -62 -117 -57 -206 13 -284 32 -36 125 -88 156 -88 7 0 23 -36 36 -81 23 -80 41 -102 63 -80 8 8 7 27 -6 75 -9 35 -17 67 -17 70 0 3 15 6 34 6 93 0 225 46 279 98 95 90 94 255 -2 357 -16 17 -45 56 -65 87 l-36 57 -41 -14 c-53 -19 -120 -19 -145 0 -26 20 -51 19 -63 -3 -33 -62 -56 -299 -42 -426 6 -50 9 -91 7 -93 -9 -10 -99 43 -125 73 -52 59 -51 134 4 229 36 63 59 147 51 188 -12 66 -86 104 -151 77z m384 -110 c27 0 61 4 75 10 15 5 26 6 26 0 0 -5 23 -37 51 -72 87 -107 112 -195 75 -266 -40 -77 -154 -135 -271 -136 l-60 -1 -7 45 c-10 69 -9 268 2 340 16 96 18 102 40 90 10 -6 41 -10 69 -10z"/>




</g>
</svg>