<svg xmlns="http://www.w3.org/2000/svg" version="1.0" width="197.000000pt" height="153.000000pt" viewBox="0 0 197.000000 153.000000" preserveAspectRatio="xMidYMid meet">
<metadata>
Created by potrace 1.16, written by Peter Selinger 2001-2019
</metadata>
<g transform="translate(0.000000,153.000000) scale(0.100000,-0.100000)" fill="#000000" stroke="none">
<path d="M914 1385 c-4 -9 -1 -100 6 -203 7 -103 14 -205 14 -227 l1 -40 -122 -5 c-103 -4 -126 -8 -150 -26 -26 -20 -28 -26 -31 -102 -4 -114 -20 -109 353 -107 l300 2 0 24 0 24 -290 1 c-159 1 -296 2 -302 3 -9 1 -13 19 -13 55 0 66 0 66 145 72 60 2 118 7 127 10 37 11 41 39 28 198 -6 83 -15 191 -18 241 -6 74 -10 90 -25 93 -9 2 -20 -4 -23 -13z"/>

</g>
</svg>