<svg xmlns="http://www.w3.org/2000/svg" version="1.0" width="183.000000pt" height="160.000000pt" viewBox="0 0 183.000000 160.000000" preserveAspectRatio="xMidYMid meet">
<metadata>
Created by potrace 1.16, written by Peter Selinger 2001-2019
</metadata>
<g transform="translate(0.000000,160.000000) scale(0.100000,-0.100000)" fill="#000000" stroke="none">
<path d="M730 1365 c-8 -2 -32 -6 -52 -10 -28 -4 -38 -11 -38 -25 0 -17 9 -18 158 -13 130 5 163 3 195 -10 31 -13 38 -21 35 -39 -4 -33 -49 -50 -158 -60 -102 -9 -169 -29 -192 -56 -24 -27 -29 -76 -11 -102 27 -39 73 -50 201 -50 122 0 182 -12 182 -36 0 -23 -32 -33 -145 -44 -59 -6 -122 -17 -140 -24 -93 -39 -81 -139 19 -165 67 -17 287 -15 312 3 15 12 16 17 7 27 -9 9 -49 12 -136 10 -129 -2 -201 9 -210 33 -12 30 46 50 173 61 141 12 180 34 180 101 0 66 -68 93 -233 94 -134 0 -186 15 -167 49 14 27 62 41 176 50 135 11 194 45 194 109 0 72 -49 95 -210 98 -69 2 -132 1 -140 -1z"/>


</g>
</svg>