<svg xmlns="http://www.w3.org/2000/svg" version="1.0" width="174.000000pt" height="155.000000pt" viewBox="0 0 174.000000 155.000000" preserveAspectRatio="xMidYMid meet">

<g transform="translate(0.000000,155.000000) scale(0.100000,-0.100000)" fill="#000000" stroke="none">


<path d="M852 1348 c-42 -46 -312 -623 -312 -669 0 -34 28 -40 55 -13 19 20 75 130 122 239 59 141 158 335 168 331 6 -1 38 -63 72 -137 146 -318 168 -363 195 -400 17 -24 36 -39 49 -39 19 0 21 4 15 32 -9 47 -96 247 -192 443 -122 250 -128 259 -172 213z"/>

</g>
</svg>