<svg xmlns="http://www.w3.org/2000/svg" version="1.0" width="182.000000pt" height="160.000000pt" viewBox="0 0 182.000000 160.000000" preserveAspectRatio="xMidYMid meet">
<metadata>
Created by potrace 1.16, written by Peter Selinger 2001-2019
</metadata>
<g transform="translate(0.000000,160.000000) scale(0.100000,-0.100000)" fill="#000000" stroke="none">
<path d="M835 1431 c-103 -27 -175 -116 -175 -215 0 -82 90 -210 135 -192 24 9 18 30 -16 55 -59 44 -84 136 -55 204 48 116 252 146 350 51 63 -61 68 -155 11 -238 -14 -20 -25 -41 -25 -46 0 -27 33 -13 148 64 135 91 242 146 289 149 115 8 -106 -275 -367 -469 -165 -123 -210 -124 -403 -10 -162 95 -320 235 -361 319 -19 41 -12 50 36 43 68 -11 190 -78 295 -164 42 -34 73 -37 73 -8 0 32 -207 172 -305 206 -67 23 -94 25 -130 8 -64 -29 -31 -113 95 -239 133 -135 380 -287 481 -297 73 -7 125 12 224 83 169 120 355 307 415 417 53 96 32 164 -51 162 -42 -2 -171 -59 -263 -118 -65 -42 -70 -43 -61 -16 10 33 -14 126 -44 167 -40 55 -110 87 -196 90 -38 1 -83 -2 -100 -6z"/>



</g>
</svg>