<svg xmlns="http://www.w3.org/2000/svg" version="1.0" width="180.000000pt" height="155.000000pt" viewBox="0 0 180.000000 155.000000" preserveAspectRatio="xMidYMid meet">

<g transform="translate(0.000000,155.000000) scale(0.100000,-0.100000)" fill="#000000" stroke="none">


<path d="M1004 1367 c-9 -25 2 -34 53 -42 96 -14 147 -112 88 -170 -31 -32 -50 -31 -79 0 -13 14 -28 25 -33 25 -6 0 -18 -11 -27 -25 -24 -36 -86 -35 -120 1 l-24 27 -23 -27 c-25 -28 -75 -36 -97 -14 -36 36 8 144 72 177 68 37 -11 66 -93 35 -64 -24 -96 -50 -136 -108 -47 -70 -69 -160 -62 -262 8 -142 79 -247 204 -306 75 -36 155 -43 161 -15 2 9 -2 19 -10 21 -122 33 -160 50 -206 91 -73 66 -97 126 -97 245 1 77 5 104 23 145 23 50 62 99 94 116 15 8 16 7 2 -18 -21 -42 -18 -115 6 -146 32 -41 109 -54 145 -26 6 4 32 1 58 -8 43 -14 51 -14 90 1 34 13 48 14 73 4 115 -43 202 121 117 222 -32 39 -66 56 -126 65 -38 6 -48 4 -53 -8z"/>







</g>
</svg>