<svg xmlns="http://www.w3.org/2000/svg" version="1.0" width="180.000000pt" height="155.000000pt" viewBox="0 0 180.000000 155.000000" preserveAspectRatio="xMidYMid meet">

<g transform="translate(0.000000,155.000000) scale(0.100000,-0.100000)" fill="#000000" stroke="none">


<path d="M1093 1334 c-3 -8 6 -39 20 -67 33 -70 40 -108 28 -154 -32 -117 -169 -136 -268 -36 -40 40 -47 43 -60 30 -14 -14 -13 -18 5 -44 48 -68 147 -109 230 -97 39 5 55 15 95 55 l47 49 0 -43 c0 -85 -36 -178 -92 -242 -95 -109 -285 -113 -408 -8 -38 33 -100 137 -100 169 0 19 -27 24 -40 9 -18 -22 15 -108 64 -169 45 -55 127 -110 191 -127 22 -6 76 -9 121 -7 95 5 145 29 213 103 67 72 95 143 99 248 5 121 -25 222 -95 315 -27 35 -41 40 -50 16z"/>











</g>
</svg>