<svg xmlns="http://www.w3.org/2000/svg" version="1.0" width="188.000000pt" height="157.000000pt" viewBox="0 0 188.000000 157.000000" preserveAspectRatio="xMidYMid meet">
<metadata>
Created by potrace 1.16, written by Peter Selinger 2001-2019
</metadata>
<g transform="translate(0.000000,157.000000) scale(0.100000,-0.100000)" fill="#000000" stroke="none">

<path d="M605 1302 c-20 -3 -26 -5 -98 -38 -48 -21 -84 -74 -97 -142 -20 -108 26 -202 125 -255 32 -17 56 -22 120 -21 70 1 93 6 185 43 58 23 161 72 230 109 159 85 173 90 243 91 102 2 174 -51 188 -136 13 -88 -35 -154 -158 -217 -62 -31 -67 -37 -48 -62 13 -18 16 -18 81 15 215 111 248 331 66 434 -44 25 -65 30 -120 30 -84 1 -120 -12 -252 -84 -126 -70 -304 -147 -363 -157 -134 -24 -237 46 -237 162 0 117 65 166 234 175 85 5 101 9 104 23 2 11 -5 19 -20 22 -30 7 -157 12 -183 8z"/>


</g>
</svg>