<svg xmlns="http://www.w3.org/2000/svg" version="1.0" width="180.000000pt" height="157.000000pt" viewBox="0 0 180.000000 157.000000" preserveAspectRatio="xMidYMid meet">
<metadata>
Created by potrace 1.16, written by Peter Selinger 2001-2019
</metadata>
<g transform="translate(0.000000,157.000000) scale(0.100000,-0.100000)" fill="#000000" stroke="none">
<path d="M905 1346 c-65 -29 -105 -101 -105 -191 0 -122 61 -177 258 -231 9 -3 12 -29 10 -106 l-3 -103 -335 -5 -335 -5 0 -25 0 -25 338 -3 338 -2 24 24 c23 24 25 32 25 131 l0 105 83 0 c90 0 111 8 105 36 -3 16 -15 20 -93 24 l-90 5 -5 130 c-6 137 -14 168 -62 212 -45 42 -100 53 -153 29z m114 -72 c39 -33 51 -77 51 -197 l0 -97 -27 6 c-132 33 -193 86 -193 169 0 75 53 145 111 145 15 0 41 -12 58 -26z"/>


</g>
</svg>