<svg xmlns="http://www.w3.org/2000/svg" version="1.0" width="180.000000pt" height="160.000000pt" viewBox="0 0 180.000000 160.000000" preserveAspectRatio="xMidYMid meet">
<metadata>
Created by potrace 1.16, written by Peter Selinger 2001-2019
</metadata>
<g transform="translate(0.000000,160.000000) scale(0.100000,-0.100000)" fill="#000000" stroke="none">
<path d="M652 1418 c-7 -7 -12 -17 -12 -24 0 -12 -140 -537 -144 -541 -1 -2 -27 66 -58 150 -38 105 -60 153 -71 155 -10 2 -20 -4 -23 -12 -7 -18 121 -383 142 -405 21 -23 39 1 58 76 49 190 108 412 118 441 l10 33 29 -41 c58 -80 171 -127 284 -118 l51 4 24 -55 c33 -76 102 -143 170 -166 94 -31 261 -7 236 34 -5 7 -36 9 -95 4 -81 -5 -93 -4 -144 20 -65 30 -110 84 -132 162 l-15 51 -103 0 c-95 -1 -106 1 -156 29 -60 33 -106 94 -117 154 -10 55 -28 73 -52 49z"/>

</g>
</svg>