<svg xmlns="http://www.w3.org/2000/svg" version="1.0" width="186.000000pt" height="163.000000pt" viewBox="0 0 186.000000 163.000000" preserveAspectRatio="xMidYMid meet">
<metadata>
Created by potrace 1.16, written by Peter Selinger 2001-2019
</metadata>
<g transform="translate(0.000000,163.000000) scale(0.100000,-0.100000)" fill="#000000" stroke="none">
<path d="M948 1514 c-93 -29 -183 -139 -222 -273 -17 -58 -15 -71 14 -71 14 0 23 14 35 57 43 147 122 231 233 249 48 8 99 -16 112 -52 6 -14 10 -45 10 -69 0 -37 -3 -44 -25 -49 -31 -8 -115 -87 -115 -109 0 -11 15 -20 43 -28 23 -6 51 -16 61 -21 17 -9 14 -13 -27 -39 -83 -52 -95 -99 -29 -112 45 -9 82 -44 82 -78 0 -44 -29 -107 -60 -129 -94 -67 -278 -26 -296 66 -8 44 -30 63 -49 43 -12 -12 -12 -21 -2 -54 50 -163 318 -195 419 -50 33 48 58 147 42 173 -6 9 -32 31 -58 49 l-47 32 33 21 c18 11 43 23 56 26 47 13 7 88 -58 109 -32 10 -24 23 28 48 26 12 50 26 53 31 11 14 -3 139 -19 175 -29 62 -116 85 -214 55z"/>



</g>
</svg>