<svg xmlns="http://www.w3.org/2000/svg" version="1.0" width="186.000000pt" height="160.000000pt" viewBox="0 0 186.000000 160.000000" preserveAspectRatio="xMidYMid meet">

<g transform="translate(0.000000,160.000000) scale(0.100000,-0.100000)" fill="#000000" stroke="none">
<path d="M875 1304 c-114 -29 -156 -48 -217 -98 -36 -30 -82 -74 -102 -99 -83 -102 -182 -315 -158 -339 15 -15 43 -2 50 25 3 12 30 72 61 132 45 91 68 123 130 185 106 104 178 135 311 134 67 -1 116 -7 168 -23 39 -12 72 -24 72 -28 0 -3 -9 -3 -19 0 -34 9 -125 -14 -180 -45 -137 -78 -150 -242 -26 -328 71 -49 119 -62 225 -62 94 0 221 22 247 43 7 7 13 20 13 30 0 24 -32 25 -91 2 -31 -11 -78 -16 -159 -17 -107 -1 -119 1 -167 26 -70 38 -93 69 -93 130 0 62 20 93 80 123 69 35 162 49 249 36 40 -5 79 -7 87 -4 30 11 10 48 -41 75 -71 39 -184 85 -225 92 -54 9 -193 16 -215 10z"/>


</g>
</svg>