<svg xmlns="http://www.w3.org/2000/svg" version="1.0" width="182.000000pt" height="157.000000pt" viewBox="0 0 182.000000 157.000000" preserveAspectRatio="xMidYMid meet">
<metadata>
Created by potrace 1.16, written by Peter Selinger 2001-2019
</metadata>
<g transform="translate(0.000000,157.000000) scale(0.100000,-0.100000)" fill="#000000" stroke="none">

<path d="M815 1376 c-97 -46 -148 -132 -149 -251 -1 -56 4 -81 26 -127 33 -71 72 -121 121 -155 20 -14 37 -29 37 -33 0 -4 -21 -14 -47 -21 -74 -21 -289 -18 -391 5 -72 17 -85 18 -92 5 -16 -24 12 -39 116 -60 137 -29 317 -23 419 13 l70 24 59 -18 c137 -42 308 -41 431 2 104 36 165 89 121 106 -8 3 -38 -8 -67 -25 -88 -49 -166 -64 -299 -58 -63 3 -130 10 -148 17 l-33 12 60 55 c84 76 123 156 124 255 1 206 -183 337 -358 254z m192 -45 c52 -24 97 -85 113 -151 23 -95 -14 -193 -102 -275 -73 -68 -94 -74 -144 -42 -86 54 -146 140 -159 229 -9 57 15 144 50 186 57 68 160 90 242 53z"/>


</g>
</svg>