<svg xmlns="http://www.w3.org/2000/svg" version="1.0" width="188.000000pt" height="160.000000pt" viewBox="0 0 188.000000 160.000000" preserveAspectRatio="xMidYMid meet">

<g transform="translate(0.000000,160.000000) scale(0.100000,-0.100000)" fill="#000000" stroke="none">

<path d="M678 1386 c-102 -28 -176 -107 -198 -212 -24 -115 36 -236 149 -301 25 -15 48 -28 50 -29 2 -2 -22 -39 -53 -84 -59 -87 -70 -120 -36 -120 13 0 38 28 81 91 51 77 64 90 82 85 76 -19 182 -28 261 -22 238 18 367 82 440 216 25 45 28 60 23 110 -13 143 -120 227 -304 238 -138 8 -131 16 -455 -462 -9 -14 -65 14 -111 54 -106 92 -105 273 1 348 32 23 113 52 147 52 36 0 55 10 55 31 0 16 -7 19 -42 18 -24 0 -64 -6 -90 -13z m638 -111 c63 -31 100 -78 110 -141 18 -118 -92 -227 -273 -270 -84 -20 -269 -23 -341 -5 l-52 13 41 57 c22 31 84 120 137 197 124 181 132 187 240 181 63 -4 96 -11 138 -32z"/>


</g>
</svg>