<svg xmlns="http://www.w3.org/2000/svg" version="1.0" width="180.000000pt" height="160.000000pt" viewBox="0 0 180.000000 160.000000" preserveAspectRatio="xMidYMid meet">
<metadata>
Created by potrace 1.16, written by Peter Selinger 2001-2019
</metadata>
<g transform="translate(0.000000,160.000000) scale(0.100000,-0.100000)" fill="#000000" stroke="none">
<path d="M1055 1279 c-88 -17 -147 -40 -272 -106 -148 -77 -290 -133 -337 -133 -47 0 -66 -9 -66 -31 0 -40 113 -36 207 7 30 13 56 24 59 24 3 0 42 22 87 49 194 117 354 166 461 142 134 -30 183 -110 154 -254 -29 -141 -192 -223 -295 -148 -76 55 -102 116 -73 171 20 38 92 30 129 -14 17 -20 57 -21 64 -2 7 19 -27 62 -63 81 -37 19 -113 19 -149 0 -28 -14 -61 -76 -61 -113 1 -31 37 -99 74 -135 53 -53 105 -77 169 -77 159 0 269 120 271 295 1 76 -18 124 -70 179 -56 59 -178 87 -289 65z"/>



</g>
</svg>