<svg xmlns="http://www.w3.org/2000/svg" version="1.0" width="174.000000pt" height="163.000000pt" viewBox="0 0 174.000000 163.000000" preserveAspectRatio="xMidYMid meet">
<metadata>
Created by potrace 1.16, written by Peter Selinger 2001-2019
</metadata>
<g transform="translate(0.000000,163.000000) scale(0.100000,-0.100000)" fill="#000000" stroke="none">
<path d="M1343 1498 c-7 -8 -11 -135 -12 -353 -1 -334 -1 -340 -22 -357 -15 -13 -39 -18 -80 -18 -55 0 -60 2 -69 26 -6 14 -10 90 -10 170 0 181 -2 184 -120 184 -118 0 -120 -4 -120 -193 0 -83 -5 -157 -10 -168 -13 -23 -72 -26 -90 -4 -8 10 -15 82 -21 217 -16 390 -20 412 -79 443 -51 26 -97 18 -147 -28 -16 -14 -55 -119 -134 -354 -94 -283 -109 -337 -98 -349 8 -7 19 -10 27 -5 12 7 64 146 126 341 63 196 107 314 123 332 19 21 76 24 92 4 15 -17 30 -184 31 -336 1 -63 5 -153 9 -199 8 -78 11 -87 40 -113 60 -54 159 -29 179 45 5 18 9 92 10 166 0 73 3 135 6 138 3 3 31 6 63 7 l58 1 5 -160 c5 -161 13 -196 46 -209 31 -12 155 -6 183 9 59 30 62 48 59 427 -3 304 -5 343 -19 346 -9 1 -20 -3 -26 -10z"/>


</g>
</svg>