<svg xmlns="http://www.w3.org/2000/svg" version="1.0" width="186.000000pt" height="157.000000pt" viewBox="0 0 186.000000 157.000000" preserveAspectRatio="xMidYMid meet">
<metadata>
Created by potrace 1.16, written by Peter Selinger 2001-2019
</metadata>
<g transform="translate(0.000000,157.000000) scale(0.100000,-0.100000)" fill="#000000" stroke="none">

<path d="M622 1239 c-60 -30 -133 -104 -162 -164 -17 -35 -26 -72 -28 -123 -4 -63 -1 -80 23 -127 38 -79 90 -108 206 -113 168 -8 237 45 244 187 l3 66 218 0 219 0 3 -65 c3 -73 14 -92 51 -88 30 4 39 27 40 116 1 74 -18 118 -57 133 -18 7 -114 8 -285 3 l-258 -7 -19 -25 c-16 -20 -20 -40 -20 -108 l0 -84 -32 -20 c-45 -27 -120 -27 -165 1 -48 30 -66 70 -61 139 5 69 45 130 125 190 55 42 65 67 37 94 -20 21 -31 20 -82 -5z"/>
</g>
</svg>