<svg xmlns="http://www.w3.org/2000/svg" version="1.0" width="180.000000pt" height="153.000000pt" viewBox="0 0 180.000000 153.000000" preserveAspectRatio="xMidYMid meet">
<metadata>
Created by potrace 1.16, written by Peter Selinger 2001-2019
</metadata>
<g transform="translate(0.000000,153.000000) scale(0.100000,-0.100000)" fill="#000000" stroke="none">
<path d="M254 1325 c-6 -14 179 -419 224 -492 14 -22 19 -23 168 -23 145 0 154 -1 154 -19 0 -24 45 -61 75 -61 22 0 57 32 68 63 6 15 22 17 139 17 l133 -1 20 -32 c26 -41 73 -49 104 -16 60 65 20 257 -67 316 -41 27 -127 47 -212 47 -58 1 -65 -1 -65 -19 0 -17 11 -21 88 -31 118 -16 171 -37 197 -79 27 -43 44 -144 30 -179 -12 -34 -28 -33 -36 2 -12 49 -13 49 -191 45 -93 -2 -173 -6 -180 -8 -6 -2 -13 -19 -15 -37 -4 -46 -31 -44 -38 2 l-5 35 -165 5 -164 5 -112 235 c-108 227 -135 266 -150 225z"/>


</g>
</svg>