<svg xmlns="http://www.w3.org/2000/svg" version="1.0" width="180.000000pt" height="163.000000pt" viewBox="0 0 180.000000 163.000000" preserveAspectRatio="xMidYMid meet">
<metadata>
Created by potrace 1.16, written by Peter Selinger 2001-2019
</metadata>
<g transform="translate(0.000000,163.000000) scale(0.100000,-0.100000)" fill="#000000" stroke="none">
<path d="M210 1290 c0 -15 156 -310 214 -402 9 -15 26 -18 106 -18 l96 0 12 44 c14 53 61 110 112 136 140 72 360 31 435 -80 27 -41 30 -54 35 -150 4 -92 7 -105 24 -108 29 -6 35 15 31 106 -6 118 -21 158 -80 218 -71 73 -139 97 -270 98 -116 1 -179 -16 -247 -68 -39 -30 -88 -105 -88 -135 0 -7 -23 -11 -64 -11 l-64 0 -108 195 c-78 139 -114 195 -126 195 -11 0 -18 -8 -18 -20z"/>


</g>
</svg>