<svg xmlns="http://www.w3.org/2000/svg" version="1.0" width="180.000000pt" height="153.000000pt" viewBox="0 0 180.000000 153.000000" preserveAspectRatio="xMidYMid meet">
<metadata>
Created by potrace 1.16, written by Peter Selinger 2001-2019
</metadata>
<g transform="translate(0.000000,153.000000) scale(0.100000,-0.100000)" fill="#000000" stroke="none">
<path d="M376 1383 c-46 -148 -55 -491 -18 -628 29 -105 32 -108 107 -91 144 34 267 47 435 47 157 0 297 -16 395 -45 42 -13 52 -13 63 -2 12 11 11 18 -2 44 -24 46 -46 149 -46 217 0 33 10 93 22 133 15 54 18 76 10 84 -19 19 -40 -9 -62 -79 -24 -77 -26 -182 -5 -268 8 -33 14 -63 15 -66 0 -3 -44 3 -97 14 -184 37 -538 24 -747 -29 -23 -5 -25 -2 -43 73 -24 103 -22 343 4 490 10 56 17 106 15 112 -6 18 -40 13 -46 -6z"/>

</g>
</svg>
