<svg xmlns="http://www.w3.org/2000/svg" version="1.0" width="182.000000pt" height="153.000000pt" viewBox="0 0 182.000000 153.000000" preserveAspectRatio="xMidYMid meet">
<metadata>
Created by potrace 1.16, written by Peter Selinger 2001-2019
</metadata>
<g transform="translate(0.000000,153.000000) scale(0.100000,-0.100000)" fill="#000000" stroke="none">

<path d="M1190 1305 c-206 -79 -611 -278 -645 -314 -27 -31 -14 -46 81 -99 145 -80 558 -262 596 -262 11 0 18 7 18 20 0 29 -64 65 -344 198 -132 62 -242 114 -243 116 -3 3 287 148 427 213 125 59 141 67 157 85 16 18 15 49 -2 54 -5 2 -26 -3 -45 -11z"/>


</g>
</svg>