<svg xmlns="http://www.w3.org/2000/svg" version="1.0" width="180.000000pt" height="155.000000pt" viewBox="0 0 180.000000 155.000000" preserveAspectRatio="xMidYMid meet">

<g transform="translate(0.000000,155.000000) scale(0.100000,-0.100000)" fill="#000000" stroke="none">


<path d="M397 1236 c-3 -7 1 -44 8 -82 45 -235 188 -380 409 -414 275 -42 503 105 571 369 21 83 17 136 -10 136 -15 0 -21 -8 -23 -30 -19 -175 -114 -324 -250 -388 -65 -31 -71 -32 -202 -32 -131 0 -137 1 -203 32 -142 68 -208 172 -253 401 -5 24 -38 31 -47 8z"/>











</g>
</svg>