<svg xmlns="http://www.w3.org/2000/svg" version="1.0" width="180.000000pt" height="155.000000pt" viewBox="0 0 180.000000 155.000000" preserveAspectRatio="xMidYMid meet">

<g transform="translate(0.000000,155.000000) scale(0.100000,-0.100000)" fill="#000000" stroke="none">


<path d="M912 1364 c-74 -19 -108 -39 -169 -96 -149 -142 -185 -355 -91 -543 30 -60 87 -125 109 -125 28 0 24 30 -11 72 -41 50 -77 133 -90 210 -14 77 6 187 44 253 37 63 108 131 163 157 40 19 64 23 148 23 108 0 145 -12 214 -71 107 -90 120 -256 27 -362 -110 -125 -319 -76 -334 79 -12 124 86 195 189 137 29 -16 42 -19 50 -11 32 32 -41 83 -116 83 -181 0 -252 -223 -110 -348 50 -44 100 -62 174 -62 146 0 261 127 264 291 1 62 -3 82 -25 124 -51 95 -121 153 -226 185 -74 23 -136 24 -210 4z"/>






</g>
</svg>