<svg xmlns="http://www.w3.org/2000/svg" version="1.0" width="180.000000pt" height="155.000000pt" viewBox="0 0 180.000000 155.000000" preserveAspectRatio="xMidYMid meet">

<g transform="translate(0.000000,155.000000) scale(0.100000,-0.100000)" fill="#000000" stroke="none">


<path d="M688 1346 c-41 -22 -75 -65 -98 -125 -21 -55 -24 -110 -21 -438 1 -115 2 -123 21 -123 35 0 40 31 37 207 -4 218 4 308 32 367 75 154 258 61 237 -120 -9 -78 -28 -109 -91 -150 -30 -19 -55 -41 -55 -49 0 -15 44 -50 234 -189 112 -81 156 -101 171 -76 4 6 1 18 -6 26 -20 25 -147 125 -226 179 l-73 50 34 30 c19 17 40 40 46 53 27 54 29 153 5 249 -7 30 -61 90 -96 109 -36 18 -116 18 -151 0z"/>







</g>
</svg>