<svg xmlns="http://www.w3.org/2000/svg" xmlns:xlink="http://www.w3.org/1999/xlink" version="1.1" id="Layer_1" x="0px" y="0px" width="100%" viewBox="0 0 192 144" enable-background="new 0 0 192 144" xml:space="preserve">
<path fill="#000000" opacity="1.000000" stroke="none" d=" M92.242928,40.262169   C82.180862,42.909107 75.911690,49.581718 70.841629,57.720703   C68.730377,61.109901 66.611015,64.495583 64.417740,67.831841   C59.130802,75.873962 51.074657,78.386345 42.055836,78.778069   C39.773827,78.877174 37.477798,78.099213 37.144646,75.497063   C36.780922,72.656151 39.005085,71.792511 41.334091,71.720337   C50.281563,71.443024 56.120945,66.658493 60.361748,59.183933   C62.989796,54.551907 66.440788,50.477100 69.670753,46.237862   C78.284897,34.932041 90.203453,30.863394 103.589745,29.758204   C123.549942,28.110264 142.096436,34.080948 160.497879,40.674030   C161.224564,40.934391 161.833542,41.523293 162.367676,41.873966   C162.379807,43.882370 160.918045,44.327274 159.849609,44.948071   C144.568085,53.827171 130.028229,63.854397 115.570541,73.970795   C104.540688,81.688637 92.486656,83.608215 79.502106,82.322876   C75.488922,81.925606 74.121773,80.330544 75.893234,76.456337   C80.555344,66.260292 86.560295,57.533989 98.560623,55.180256   C100.148109,54.868889 101.771095,54.280556 103.588829,55.642845   C101.443977,58.785175 97.787788,59.910343 95.126617,62.236683   C91.865730,65.087273 88.314011,67.638779 86.401161,71.696251   C84.972641,74.726379 85.820801,76.451599 89.347412,76.665092   C92.593712,76.861618 95.800850,76.419891 98.543343,74.833740   C114.095703,65.838791 127.912697,54.271832 143.341614,44.518761   C126.762680,36.982967 109.890297,36.325089 92.242928,40.262169  z"/>
</svg>
