<svg xmlns="http://www.w3.org/2000/svg" version="1.0" width="180.000000pt" height="157.000000pt" viewBox="0 0 180.000000 157.000000" preserveAspectRatio="xMidYMid meet">
<metadata>
Created by potrace 1.16, written by Peter Selinger 2001-2019
</metadata>
<g transform="translate(0.000000,157.000000) scale(0.100000,-0.100000)" fill="#000000" stroke="none">

<path d="M1130 1235 c-17 -21 3 -45 38 -45 38 0 109 -38 132 -70 32 -46 27 -96 -15 -136 -51 -47 -153 -93 -255 -114 -86 -18 -323 -43 -545 -58 -102 -6 -110 -9 -113 -28 -4 -27 27 -36 100 -29 29 2 105 7 169 10 154 6 324 29 441 59 237 60 343 174 282 302 -16 33 -65 79 -111 103 -39 20 -108 24 -123 6z"/>


</g>
</svg>