<svg xmlns="http://www.w3.org/2000/svg" version="1.0" width="188.000000pt" height="153.000000pt" viewBox="0 0 188.000000 153.000000" preserveAspectRatio="xMidYMid meet">
<metadata>
Created by potrace 1.16, written by Peter Selinger 2001-2019
</metadata>
<g transform="translate(0.000000,153.000000) scale(0.100000,-0.100000)" fill="#000000" stroke="none">

<path d="M824 1390 c-255 -66 -395 -250 -363 -475 38 -270 346 -416 691 -329 157 40 250 99 294 189 50 103 29 202 -57 260 -42 29 -48 30 -154 30 -89 0 -122 -5 -174 -23 l-64 -23 -123 122 c-78 78 -127 120 -136 116 -17 -6 -28 -149 -28 -375 0 -114 3 -144 14 -148 9 -3 48 28 103 83 48 49 104 98 124 110 l37 21 78 -79 c80 -80 88 -86 113 -70 11 7 -3 27 -63 92 -53 58 -73 85 -64 90 30 17 140 39 192 39 107 0 176 -54 176 -136 0 -61 -19 -102 -70 -148 -58 -52 -131 -82 -262 -108 -100 -20 -118 -21 -204 -10 -153 19 -254 70 -314 157 -44 64 -60 117 -60 201 0 102 28 174 94 239 95 95 239 145 421 145 122 0 213 -19 301 -60 66 -32 94 -31 81 4 -9 22 -98 65 -185 87 -102 26 -297 26 -398 -1z m83 -433 c-23 -16 -63 -50 -89 -75 -26 -25 -50 -44 -52 -41 -3 3 -2 76 1 163 l6 157 88 -87 88 -87 -42 -30z"/>


</g>
</svg>