<svg xmlns="http://www.w3.org/2000/svg" version="1.0" width="182.000000pt" height="153.000000pt" viewBox="0 0 182.000000 153.000000" preserveAspectRatio="xMidYMid meet">
<metadata>
Created by potrace 1.16, written by Peter Selinger 2001-2019
</metadata>
<g transform="translate(0.000000,153.000000) scale(0.100000,-0.100000)" fill="#000000" stroke="none">

<path d="M809 1417 c-45 -17 -73 -36 -99 -70 -52 -66 -66 -167 -31 -236 27 -52 92 -108 143 -121 130 -35 176 -65 210 -137 32 -68 13 -140 -47 -179 -28 -18 -147 -31 -189 -20 -14 3 -41 20 -61 37 -55 48 -88 21 -44 -35 64 -81 223 -92 328 -23 73 48 103 161 67 248 -27 64 -115 126 -212 150 -132 31 -191 147 -131 254 45 81 144 104 238 56 36 -19 44 -20 56 -8 52 52 -131 120 -228 84z"/>

</g>
</svg>