<svg xmlns="http://www.w3.org/2000/svg" version="1.0" width="188.000000pt" height="155.000000pt" viewBox="0 0 188.000000 155.000000" preserveAspectRatio="xMidYMid meet">

<g transform="translate(0.000000,155.000000) scale(0.100000,-0.100000)" fill="#000000" stroke="none">


<path d="M1000 1309 c-135 -61 -255 -120 -267 -132 -23 -20 -23 -24 -23 -278 0 -287 2 -295 64 -286 45 6 407 175 435 202 24 23 24 25 22 207 -1 101 -6 187 -11 192 -5 5 -16 6 -24 3 -13 -5 -16 -35 -18 -188 l-3 -181 -203 -94 c-111 -52 -205 -94 -207 -94 -3 0 -4 109 -3 242 l3 241 250 115 c138 63 253 119 257 125 7 11 -8 37 -21 37 -3 0 -116 -50 -251 -111z"/>














</g>
</svg>