<svg xmlns="http://www.w3.org/2000/svg" version="1.0" width="180.000000pt" height="160.000000pt" viewBox="0 0 180.000000 160.000000" preserveAspectRatio="xMidYMid meet">

<g transform="translate(0.000000,160.000000) scale(0.100000,-0.100000)" fill="#000000" stroke="none">
<path d="M1198 1314 c-29 -9 -62 -30 -90 -59 l-44 -44 -28 30 c-41 43 -82 61 -138 61 -57 0 -116 -33 -144 -81 l-18 -30 -37 34 c-68 61 -138 54 -193 -18 -33 -44 -52 -98 -67 -195 -15 -96 -8 -135 24 -130 20 3 23 10 28 84 11 151 56 244 118 244 22 0 39 -11 74 -50 25 -27 52 -50 61 -50 8 0 24 19 34 43 26 57 62 88 110 94 55 7 101 -22 136 -87 33 -60 57 -65 74 -16 41 111 188 167 229 86 17 -34 16 -133 -2 -205 -19 -75 -92 -225 -140 -288 -36 -47 -40 -77 -11 -77 39 0 141 163 186 298 65 195 46 314 -57 358 -39 17 -45 17 -105 -2z"/>


</g>
</svg>