<svg xmlns="http://www.w3.org/2000/svg" version="1.0" width="182.000000pt" height="163.000000pt" viewBox="0 0 182.000000 163.000000" preserveAspectRatio="xMidYMid meet">
<metadata>
Created by potrace 1.16, written by Peter Selinger 2001-2019
</metadata>
<g transform="translate(0.000000,163.000000) scale(0.100000,-0.100000)" fill="#000000" stroke="none">
<path d="M894 1265 c-8 -45 -16 -49 -60 -35 -48 16 -52 7 -12 -29 l33 -31 -33 -31 c-40 -36 -36 -45 12 -29 44 14 52 10 60 -35 9 -47 24 -44 32 6 6 36 9 40 30 35 13 -3 36 -9 52 -12 l27 -7 -34 37 -35 36 35 36 c32 35 33 36 9 30 -79 -21 -77 -21 -85 23 -8 50 -22 53 -31 6z"/>




</g>
</svg>