<svg xmlns="http://www.w3.org/2000/svg" version="1.0" width="180.000000pt" height="153.000000pt" viewBox="0 0 180.000000 153.000000" preserveAspectRatio="xMidYMid meet">
<metadata>
Created by potrace 1.16, written by Peter Selinger 2001-2019
</metadata>
<g transform="translate(0.000000,153.000000) scale(0.100000,-0.100000)" fill="#000000" stroke="none">
<path d="M448 1523 c248 -2 656 -2 905 0 248 1 45 2 -453 2 -498 0 -701 -1 -452 -2z"/>
<path d="M617 1180 c-60 -47 -74 -187 -28 -266 12 -19 19 -40 16 -45 -3 -5 -45 -20 -93 -35 -48 -14 -93 -28 -100 -30 -8 -2 -12 -12 -10 -21 6 -35 86 -24 214 28 l50 21 45 -22 c130 -67 306 -67 443 0 l44 21 59 -24 c71 -30 166 -52 187 -44 19 8 21 36 4 41 -153 46 -188 58 -192 64 -3 5 6 30 19 57 31 60 33 141 6 201 -23 51 -55 74 -101 74 -46 0 -78 -23 -101 -74 -35 -77 -18 -178 40 -230 12 -11 21 -23 21 -27 0 -4 -26 -18 -57 -30 -46 -17 -78 -22 -153 -22 -75 0 -107 5 -152 22 -32 12 -58 26 -58 30 0 4 9 16 21 27 77 70 76 233 -2 288 -32 22 -91 20 -122 -4z m98 -55 c21 -20 25 -34 25 -84 0 -53 -4 -65 -31 -96 -17 -19 -35 -35 -40 -35 -24 0 -49 66 -49 128 0 53 4 67 25 87 13 14 29 25 35 25 6 0 22 -11 35 -25z m500 0 c21 -20 25 -34 25 -87 0 -62 -25 -128 -49 -128 -5 0 -23 16 -40 35 -27 31 -31 43 -31 96 0 50 4 64 25 84 13 14 29 25 35 25 6 0 22 -11 35 -25z"/>

</g>
</svg>