<svg xmlns="http://www.w3.org/2000/svg" version="1.0" width="180.000000pt" height="157.000000pt" viewBox="0 0 180.000000 157.000000" preserveAspectRatio="xMidYMid meet">
<metadata>
Created by potrace 1.16, written by Peter Selinger 2001-2019
</metadata>
<g transform="translate(0.000000,157.000000) scale(0.100000,-0.100000)" fill="#000000" stroke="none">
<path d="M909 1362 c-177 -187 -341 -436 -400 -604 -20 -59 -8 -63 105 -39 204 44 444 47 617 7 61 -15 83 -9 77 20 -2 15 -21 23 -88 37 -172 35 -424 32 -595 -8 -55 -12 -55 -12 -49 9 36 115 218 383 375 550 32 35 59 71 59 80 0 34 -40 14 -101 -52z"/>

</g>
</svg>