<svg xmlns="http://www.w3.org/2000/svg" version="1.0" width="180.000000pt" height="153.000000pt" viewBox="0 0 180.000000 153.000000" preserveAspectRatio="xMidYMid meet">
<metadata>
Created by potrace 1.16, written by Peter Selinger 2001-2019
</metadata>
<g transform="translate(0.000000,153.000000) scale(0.100000,-0.100000)" fill="#000000" stroke="none">
<path d="M291 1236 c-9 -10 15 -57 111 -217 68 -111 134 -211 148 -221 20 -14 51 -18 165 -21 156 -4 201 5 209 45 4 18 14 192 16 266 0 9 28 12 105 12 l105 0 1 -32 c1 -18 3 -60 4 -92 1 -51 5 -62 30 -84 28 -24 33 -24 120 -18 164 13 268 47 237 78 -7 7 -34 6 -94 -5 -108 -20 -201 -29 -221 -21 -14 5 -17 21 -17 89 0 68 -4 87 -21 109 -20 26 -23 26 -142 26 -67 0 -127 -4 -134 -8 -24 -15 -33 -66 -33 -182 0 -65 -4 -121 -8 -124 -5 -3 -69 -6 -143 -8 -106 -2 -140 0 -153 11 -15 13 -125 187 -185 294 -41 73 -71 117 -80 117 -5 0 -14 -6 -20 -14z"/>

</g>
</svg>