<svg xmlns="http://www.w3.org/2000/svg" version="1.0" width="180.000000pt" height="163.000000pt" viewBox="0 0 180.000000 163.000000" preserveAspectRatio="xMidYMid meet">
<metadata>
Created by potrace 1.16, written by Peter Selinger 2001-2019
</metadata>
<g transform="translate(0.000000,163.000000) scale(0.100000,-0.100000)" fill="#000000" stroke="none">
<path d="M255 1358 c-7 -18 60 -401 75 -428 21 -40 82 -60 179 -60 49 0 101 -4 115 -10 14 -5 39 -32 56 -59 19 -31 44 -56 68 -67 75 -37 207 -15 304 49 72 48 75 59 49 177 -46 220 -19 330 83 330 57 0 95 -31 125 -100 45 -105 38 -235 -26 -433 -34 -107 -35 -127 -7 -127 34 0 102 228 111 371 5 82 2 107 -16 168 -40 130 -126 196 -223 170 -53 -14 -76 -33 -99 -84 -26 -56 -25 -194 1 -304 20 -80 20 -85 3 -104 -26 -29 -102 -64 -160 -75 -87 -15 -155 5 -169 51 -10 35 -55 77 -94 87 -19 5 -72 9 -117 9 -101 0 -139 16 -148 64 -63 351 -70 382 -88 385 -9 2 -19 -3 -22 -10z"/>


</g>
</svg>