<svg xmlns="http://www.w3.org/2000/svg" version="1.0" width="180.000000pt" height="153.000000pt" viewBox="0 0 180.000000 153.000000" preserveAspectRatio="xMidYMid meet">
<metadata>
Created by potrace 1.16, written by Peter Selinger 2001-2019
</metadata>
<g transform="translate(0.000000,153.000000) scale(0.100000,-0.100000)" fill="#000000" stroke="none">
<path d="M386 1249 c-15 -79 3 -361 31 -461 21 -76 50 -108 100 -108 46 0 67 13 158 101 81 77 73 75 300 84 225 8 376 40 392 82 12 30 -14 35 -73 14 -84 -30 -166 -41 -354 -47 -91 -3 -180 -10 -199 -16 -21 -7 -63 -40 -107 -84 -106 -107 -140 -109 -169 -10 -19 65 -35 273 -29 362 7 83 0 114 -25 114 -13 0 -20 -10 -25 -31z"/>

</g>
</svg>