<svg xmlns="http://www.w3.org/2000/svg" version="1.0" width="180.000000pt" height="153.000000pt" viewBox="0 0 180.000000 153.000000" preserveAspectRatio="xMidYMid meet">
<metadata>
Created by potrace 1.16, written by Peter Selinger 2001-2019
</metadata>
<g transform="translate(0.000000,153.000000) scale(0.100000,-0.100000)" fill="#000000" stroke="none">
<path d="M885 1396 c-43 -18 -93 -79 -101 -121 -11 -60 0 -139 25 -173 29 -41 98 -81 175 -102 l61 -17 0 -99 0 -99 -325 -6 c-179 -3 -331 -7 -338 -8 -8 0 -12 -10 -10 -23 l3 -23 336 -3 c413 -3 382 -14 389 145 l5 108 80 -3 c65 -3 84 -1 94 12 28 33 7 45 -86 48 l-88 3 -5 130 c-5 136 -10 153 -57 197 -49 47 -102 58 -158 34z m107 -57 c39 -21 58 -85 58 -197 0 -94 -2 -103 -17 -98 -10 3 -36 10 -58 15 -88 23 -145 83 -145 151 0 43 32 114 57 129 24 14 79 14 105 0z"/>

</g>
</svg>