<svg xmlns="http://www.w3.org/2000/svg" version="1.0" width="180.000000pt" height="153.000000pt" viewBox="0 0 180.000000 153.000000" preserveAspectRatio="xMidYMid meet">
<metadata>
Created by potrace 1.16, written by Peter Selinger 2001-2019
</metadata>
<g transform="translate(0.000000,153.000000) scale(0.100000,-0.100000)" fill="#000000" stroke="none">

<path d="M820 1443 c0 -5 -29 -54 -63 -110 -78 -124 -101 -191 -95 -278 5 -78 41 -135 108 -173 45 -25 46 -27 60 -100 16 -78 37 -109 61 -85 10 10 9 29 -1 85 -11 61 -10 73 1 76 8 3 32 23 54 46 98 101 83 270 -22 253 -70 -12 -113 -77 -113 -172 0 -30 -4 -55 -9 -55 -5 0 -23 16 -39 35 -67 76 -54 167 48 336 73 120 79 149 34 149 -13 0 -24 -3 -24 -7z"/>

</g>
</svg>