<svg xmlns="http://www.w3.org/2000/svg" version="1.0" width="188.000000pt" height="160.000000pt" viewBox="0 0 188.000000 160.000000" preserveAspectRatio="xMidYMid meet">
<metadata>
Created by potrace 1.16, written by Peter Selinger 2001-2019
</metadata>
<g transform="translate(0.000000,160.000000) scale(0.100000,-0.100000)" fill="#000000" stroke="none">

<path d="M1345 1320 c-49 -5 -128 -11 -175 -14 -174 -13 -200 -18 -231 -44 -37 -31 -59 -72 -59 -112 0 -39 -28 -175 -44 -215 l-13 -30 -20 47 c-79 177 -342 75 -282 -109 28 -89 73 -118 169 -111 41 3 69 11 90 27 l31 22 40 -34 c69 -60 163 -72 261 -34 74 28 140 84 168 142 41 86 -1 105 -48 22 -75 -133 -277 -176 -366 -78 -19 21 -19 22 2 74 29 70 50 154 57 230 8 81 21 112 51 126 29 13 54 16 324 36 242 18 252 20 248 43 -4 20 -64 24 -203 12z m-630 -336 c21 -8 51 -69 60 -121 6 -40 5 -43 -27 -63 -32 -20 -99 -27 -133 -14 -25 10 -45 58 -45 109 0 61 32 95 89 95 22 0 47 -3 56 -6z"/>
</g>
</svg>