<svg xmlns="http://www.w3.org/2000/svg" version="1.0" width="180.000000pt" height="153.000000pt" viewBox="0 0 180.000000 153.000000" preserveAspectRatio="xMidYMid meet">
<metadata>
Created by potrace 1.16, written by Peter Selinger 2001-2019
</metadata>
<g transform="translate(0.000000,153.000000) scale(0.100000,-0.100000)" fill="#000000" stroke="none">

<path d="M792 1403 c-138 -145 -173 -425 -75 -605 35 -64 114 -138 148 -138 14 0 25 5 25 12 0 6 -29 39 -63 72 -49 47 -69 75 -87 121 -31 83 -37 201 -16 297 18 80 81 201 108 206 21 4 76 -62 107 -128 35 -74 36 -190 3 -264 -16 -36 -19 -52 -11 -62 18 -22 37 -5 60 54 28 73 31 185 5 259 -21 62 -90 160 -135 193 l-32 22 -37 -39z"/>


</g>
</svg>