<svg xmlns="http://www.w3.org/2000/svg" version="1.0" width="180.000000pt" height="155.000000pt" viewBox="0 0 180.000000 155.000000" preserveAspectRatio="xMidYMid meet">
<g transform="translate(0.000000,155.000000) scale(0.100000,-0.100000)" fill="#000000" stroke="none">
<path d="M342 1303 c-22 -41 23 -225 81 -337 96 -186 271 -280 460 -248 136 22 231 84 308 202 l49 74 1 -114 c2 -174 7 -288 14 -300 3 -5 17 -10 31 -10 l24 0 0 364 c0 310 -2 365 -15 376 -23 19 -43 4 -50 -37 -38 -249 -121 -395 -263 -465 -61 -30 -74 -33 -162 -33 -83 0 -103 4 -157 29 -82 37 -154 114 -198 209 -34 75 -65 184 -65 229 0 63 -37 101 -58 61z"/>

</g>
</svg>